<svg xmlns="http://www.w3.org/2000/svg" viewBox="0 0 64 64" role="img" aria-label="CtrlFin">
  <defs>
    <linearGradient id="bg" x1="8" y1="4" x2="56" y2="60" gradientUnits="userSpaceOnUse">
      <stop offset="0" stop-color="#8bc34a"/>
      <stop offset="1" stop-color="#4f8f12"/>
    </linearGradient>
    <linearGradient id="line" x1="17" y1="39" x2="50" y2="24" gradientUnits="userSpaceOnUse">
      <stop offset="0" stop-color="#d9ffb3"/>
      <stop offset="1" stop-color="#ffffff"/>
    </linearGradient>
  </defs>

  <rect x="3" y="3" width="58" height="58" rx="13" fill="url(#bg)"/>
  <path d="M15 45h37" fill="none" stroke="#ffffff" stroke-width="4" stroke-linecap="round" opacity=".85"/>
  <path d="M15 45V21" fill="none" stroke="#ffffff" stroke-width="4" stroke-linecap="round" opacity=".85"/>
  <path d="M18 39l10-7 9 3 13-11" fill="none" stroke="url(#line)" stroke-width="6" stroke-linecap="round" stroke-linejoin="round"/>
  <circle cx="18" cy="39" r="3.5" fill="#ffffff"/>
  <circle cx="28" cy="32" r="3.5" fill="#ffffff"/>
  <circle cx="37" cy="35" r="3.5" fill="#ffffff"/>
  <circle cx="50" cy="24" r="3.5" fill="#ffffff"/>
  <circle cx="45" cy="19" r="10" fill="#6aa51f"/>
  <path d="M45 12v14" fill="none" stroke="#ffffff" stroke-width="3.5" stroke-linecap="round"/>
  <path d="M40 19a5 5 0 1 0 10 0 5 5 0 1 0-10 0" fill="none" stroke="#ffffff" stroke-width="3" opacity=".95"/>
</svg>
